# 3ds Max Wavefront OBJ Exporter v0.99 - (c)2007 guruware
# File Created: 24.03.2023 12:46:25

mtllib tmp.mtl

#
# object Hexagon
#

v  0.050000 0.086603 0.000000
v  -0.050000 0.086603 0.000000
v  -0.100000 0.000000 0.000000
v  -0.050000 -0.086603 -0.000000
v  0.050000 -0.086603 -0.000000
v  0.100000 0.000000 0.000000
v  0.050000 -0.086603 -0.020000
v  0.100000 0.000000 -0.020000
v  -0.050000 -0.086603 -0.020000
v  -0.100000 0.000000 -0.020000
v  -0.050000 0.086603 -0.020000
v  0.050000 0.086603 -0.020000
# 12 vertices

vn 0.000000 0.000000 1.000000
vn 0.866025 -0.500000 0.000000
vn -0.000000 -1.000000 0.000000
vn -0.866025 -0.500000 0.000000
vn -0.866025 0.500000 0.000000
vn 0.000000 1.000000 0.000000
vn 0.866025 0.500000 0.000000
vn 0.000000 0.000000 -1.000000
# 8 vertex normals

vt -0.083333 0.000000 0.000000
vt 0.083333 0.000000 0.000000
vt 0.250000 0.000000 0.000000
vt 0.416667 0.000000 0.000000
vt 0.583333 0.000000 0.000000
vt 0.750000 0.000000 0.000000
vt 0.583333 1.000000 0.000000
vt 0.750000 1.000000 0.000000
vt 0.416667 1.000000 0.000000
vt 0.250000 1.000000 0.000000
vt 0.083333 1.000000 0.000000
vt -0.083333 1.000000 0.000000
vt 0.916667 0.000000 0.000000
vt 0.916667 1.000000 0.000000
# 14 texture coords

o Hexagon
g Hexagon
usemtl wire_176025025
s off
f 1/1/1 2/2/1 3/3/1 4/4/1 5/5/1 6/6/1 
f 6/6/2 5/5/2 7/7/2 8/8/2 
f 5/5/3 4/4/3 9/9/3 7/7/3 
f 4/4/4 3/3/4 10/10/4 9/9/4 
f 3/3/5 2/2/5 11/11/5 10/10/5 
f 2/2/6 1/1/6 12/12/6 11/11/6 
f 1/13/7 6/6/7 8/8/7 12/14/7 
f 12/14/8 8/8/8 7/7/8 9/9/8 10/10/8 11/11/8 
# 8 polygons

